# xmcd
#
# Track frame offsets:
#	150
#	3846
#	19015
#	35477
#	52607
#	69941
#	86857
#	100380
#	114612
#	129618
#	145692
#	168213
#	186869
#	206808
#	222999
#	241379
#	258652
#
# Disc length: 3751 seconds
#
# Revision: 0
# Processed by: cddbd v1.5.2PL0 Copyright (c) Steve Scherf et al.
# Submitted via: EasyCDDAExtractor 8.1.2.3
#
DISCID=eb0ea511
DTITLE=Oxmo Puccino - Le cactus de Sibérie
DYEAR=1900
DGENRE=Rap
TTITLE0=Intro
TTITLE1=Le Cactus De Siberie
TTITLE2=On Danse Pas
TTITLE3=Black Desperado
TTITLE4=La Nuit Mappelle
TTITLE5=Mon Peze
TTITLE6=Toucher Lhorizon
TTITLE7=Laisse Moi Fleurter
TTITLE8=Mes Fans
TTITLE9=Nous Aurions Pu (Feat K.Reen)
TTITLE10=Parait qu't'es hardcore
TTITLE11=Arrive Sur Terre
TTITLE12=Lamour Est Mort Mets...
TTITLE13=Compte avec moi
TTITLE14=Un Flingue Et Des Roses
TTITLE15=Paralleles
TTITLE16=Warriorz
EXTD=
EXTT0=
EXTT1=
EXTT2=
EXTT3=
EXTT4=
EXTT5=
EXTT6=
EXTT7=
EXTT8=
EXTT9=
EXTT10=
EXTT11=
EXTT12=
EXTT13=
EXTT14=
EXTT15=
EXTT16=
PLAYORDER=
